<svg width="192" height="48" viewBox="0 0 192 48" fill="none" xmlns="http://www.w3.org/2000/svg">
<path d="M192 0V48H0V0H192Z" fill="black"/>
<path d="M183.799 27.066C183.799 27.066 183.762 27.1463 183.632 27.1463H173.277C173.11 27.1463 173.03 27.2267 173.03 27.2267C173.03 27.2267 172.906 27.2699 172.906 27.4738V38.5099C172.906 38.6767 172.826 38.7138 172.826 38.7138C172.826 38.7138 172.782 38.8003 172.658 38.8003H164.427C164.309 38.8003 164.222 38.7138 164.222 38.7138C164.222 38.7138 164.179 38.6767 164.179 38.4728V27.4306C164.179 27.3132 164.08 27.2267 164.08 27.2267C164.08 27.2267 164.018 27.1463 163.913 27.1463H153.286C153.082 27.1463 153.044 27.1031 153.044 27.1031C153.044 27.1031 152.964 27.0227 152.964 26.7756V18.6994C152.964 18.6005 153.044 18.4955 153.044 18.4955C153.044 18.4955 153.082 18.4584 153.168 18.4584H164.018C164.105 18.4584 164.105 18.4151 164.105 18.4151C164.105 18.4151 164.179 18.3719 164.179 18.2915V8.6211C164.179 8.5037 164.222 8.41718 164.222 8.41718C164.222 8.41718 164.309 8.37394 164.55 8.37394H172.621C172.782 8.37394 172.826 8.41718 172.826 8.41718C172.826 8.41718 172.906 8.5037 172.906 8.66436V18.3719H183.453C183.719 18.3719 183.799 18.4151 183.799 18.4151C183.799 18.4151 183.923 18.4584 183.923 18.6994V26.8621C183.923 26.9424 183.799 27.066 183.799 27.066ZM151.67 38.4357C151.633 38.6767 151.59 38.757 151.59 38.757C151.59 38.757 151.547 38.8435 151.342 38.8435H134.65C134.167 38.8435 134.037 38.7138 134.037 38.7138C134.037 38.7138 133.956 38.5531 133.994 38.1886L138.134 9.46147C138.178 9.11544 138.258 8.99185 138.258 8.99185C138.258 8.99185 138.301 8.99185 138.685 8.99185H146.286C146.49 8.99185 146.552 9.02893 146.552 9.02893C146.552 9.02893 146.595 9.15869 146.552 9.31936L143.439 31.7684C143.395 32.0093 143.519 32.0341 143.519 32.0341C143.519 32.0341 143.599 32.0773 143.934 32.0773H152.184C152.364 32.0773 152.425 32.1515 152.425 32.1515C152.425 32.1515 152.469 32.1947 152.469 32.3986L151.67 38.4357ZM130.398 38.8806H122.983C122.822 38.961 122.692 38.8003 122.692 38.8003C122.692 38.8003 122.655 38.757 122.611 38.5099L121.627 33.9311C121.547 33.7086 121.466 33.5851 121.466 33.5851C121.466 33.5851 121.262 33.4615 121.014 33.4615H111.371C111.186 33.4615 111.062 33.5851 111.062 33.5851C111.062 33.5851 110.901 33.7272 110.814 33.9743L108.623 38.6396C108.586 38.757 108.506 38.8003 108.506 38.8003C108.506 38.8003 108.339 38.8435 108.258 38.8435H99.9026C99.6983 38.8806 99.6365 38.757 99.6365 38.757C99.6365 38.757 99.5993 38.6767 99.6983 38.5099L114.423 9.19577C114.503 9.15869 114.584 9.02893 114.584 9.02893C114.584 9.02893 114.67 8.99185 114.912 8.99185H124.029C124.233 8.99185 124.351 9.11544 124.351 9.11544C124.351 9.11544 124.394 9.15869 124.437 9.2761L130.558 38.7138C130.558 38.8003 130.515 38.8435 130.515 38.8435C130.515 38.8435 130.515 38.8806 130.398 38.8806ZM95.6443 38.8435H88.2295C88.1057 38.8435 87.9881 38.8435 87.9881 38.8435C87.9881 38.8435 87.9633 38.8003 87.92 38.757L77.6209 20.5222C77.5405 20.4419 77.5033 20.4419 77.5033 20.4419C77.5033 20.4419 77.4167 20.4419 77.4167 20.5593L74.8605 38.4728C74.8171 38.6767 74.7738 38.7138 74.7738 38.7138C74.7738 38.7138 74.6933 38.757 74.5696 38.757H67.198C67.0805 38.757 66.9938 38.6767 66.9938 38.6767C66.9938 38.6767 66.8329 38.5099 66.8948 38.3492L70.924 9.3626C70.9674 9.19576 71.054 9.15869 71.054 9.15869C71.054 9.15869 71.1716 9.02893 71.2954 9.02893H79.5272C79.651 9.02893 79.7315 9.11544 79.7315 9.11544C79.7315 9.11544 79.812 9.15869 79.8553 9.2761L89.1331 25.5336C89.2941 25.8549 89.4178 25.8178 89.4178 25.8178C89.4178 25.8178 89.5416 25.8178 89.6221 25.447L91.9617 9.2761C91.9617 9.15869 92.0359 9.11544 92.0359 9.11544C92.0359 9.11544 92.0792 9.02893 92.203 9.02893L99.9397 9.11544C100.107 9.11544 100.15 9.15869 100.15 9.15869C100.15 9.15869 100.187 9.19577 100.187 9.2761L96.0095 38.5099C95.9662 38.6767 95.8919 38.8003 95.8919 38.8003C95.8919 38.8003 95.8486 38.8435 95.6443 38.8435ZM63.2245 38.757L56.0201 38.8003C55.853 38.8003 55.7354 38.7138 55.7354 38.7138C55.7354 38.7138 55.692 38.6767 55.6487 38.3925L54.5223 33.7272C54.5223 33.6283 54.448 33.5851 54.448 33.5851C54.448 33.5851 54.4046 33.5851 54.318 33.5851H44.1427C43.9384 33.5851 43.8147 33.7272 43.8147 33.7272C43.8147 33.7272 43.6537 33.8508 43.5299 34.135L41.4998 38.4728C41.4194 38.6396 41.3761 38.6767 41.3761 38.6767C41.3761 38.6767 41.2585 38.757 41.1532 38.757H32.7605C32.5129 38.8003 32.4696 38.6767 32.4696 38.6767C32.4696 38.6767 32.4262 38.5531 32.5129 38.3925L47.0703 9.19577C47.1322 9.02893 47.2559 8.99185 47.2559 8.99185C47.2559 8.99185 47.3364 8.99185 47.5407 8.99185H56.8185C56.9856 8.99185 57.1032 9.11544 57.1032 9.11544C57.1032 9.11544 57.1465 9.15869 57.1899 9.2761L63.4287 38.5531C63.4287 38.6767 63.3545 38.7138 63.3545 38.7138C63.3545 38.7138 63.3111 38.757 63.2245 38.757ZM118.192 17.4388C118.192 17.4388 118.149 17.4388 118.105 17.5995L114.058 26.7385C113.971 27.0227 114.014 27.066 114.014 27.066C114.014 27.066 114.132 27.1463 114.219 27.1463L120.216 27.1031C120.259 27.1031 120.297 27.1031 120.297 27.1031C120.297 27.1031 120.34 27.066 120.297 26.9424L118.273 17.5562C118.235 17.4388 118.192 17.4388 118.192 17.4388ZM50.92 17.5562C50.92 17.5562 50.8829 17.5562 50.8396 17.6427L46.7855 26.8188C46.7051 26.9424 46.7422 27.0228 46.7422 27.0228C46.7422 27.0228 46.7856 27.066 46.9898 27.066L52.944 27.1031C52.9873 27.1031 53.0059 27.066 53.0059 27.066C53.0059 27.066 53.0492 27.0227 53.0059 26.8992L50.9572 17.6427C50.9572 17.5562 50.92 17.5562 50.92 17.5562ZM30.1609 37.7375C30.1176 38.0588 29.9567 38.306 29.9567 38.306C29.9567 38.306 29.7834 38.4728 29.5234 38.5531C25.6118 40.1288 21.2854 39.5974 21.2854 39.5974C14.2667 38.8435 9.82272 34.5428 8.3868 29.0063C6.27622 20.7076 10.4602 14.8188 11.4815 13.5521C13.9386 10.6046 17.7884 8.5037 21.5763 8.00936C26.3916 7.33583 29.9567 8.46044 31.4298 8.95478C31.4298 8.95478 33.0452 9.46147 34.2521 10.2833C34.8649 10.6911 34.9515 10.8518 34.9515 10.8518C34.9515 10.8518 34.9886 10.9383 34.8215 11.5686L33.6827 17.513C33.6394 17.7601 33.4908 17.8837 33.4908 17.8837C33.4908 17.8837 33.4104 17.927 32.8348 17.5562C29.1954 14.9795 24.9371 15.2885 24.9371 15.2885C21.7001 15.4924 17.9122 17.1916 16.7857 21.48C15.7831 25.2864 16.8291 28.4749 19.0944 30.3719C20.6355 31.7251 23.0308 32.3987 25.5499 32.2812C28.2918 32.0773 30.4828 30.9898 30.3219 31.0701C30.3219 31.0701 30.4395 31.0269 30.5694 30.9898C31.1389 30.7056 31.2626 30.7426 31.2626 30.7426C31.2626 30.7426 31.3864 30.8662 31.2998 31.237L30.1609 37.7375Z" fill="white"/>
</svg>
