<svg width="571" height="96" viewBox="0 0 571 96" fill="none" xmlns="http://www.w3.org/2000/svg">
<path d="M0 94.1377L11.2534 1.86233H42.26C47.9266 1.86233 52.5955 2.30288 56.2668 3.18398C59.9382 4.02503 63.1506 5.42678 65.904 7.38924C69.296 9.79224 71.9098 12.9962 73.7455 17.0013C75.5811 20.9662 76.499 25.3917 76.499 30.2778C76.499 34.8436 75.661 39.2491 73.9849 43.4944C72.3488 47.7397 70.0343 51.4643 67.0414 54.6683C63.7292 58.1126 59.8983 60.5557 55.5485 61.9975C51.2387 63.3992 45.5123 64.1001 38.3692 64.1001H27.056L23.2849 94.1377H0ZM29.3904 43.7947H36.753C47.2881 43.7947 52.5556 39.5695 52.5556 31.1189C52.5556 27.3141 51.4782 24.5707 49.3233 22.8886C47.1684 21.1665 43.6367 20.3054 38.7284 20.3054H32.2038L29.3904 43.7947Z" fill="white"/>
<path d="M82.844 94.1377L94.0973 1.86233H124.026C134.921 1.86233 143.041 4.18523 148.389 8.83104C153.776 13.4768 156.47 20.5056 156.47 29.9174C156.47 34.8035 155.811 38.9887 154.494 42.4731C153.217 45.9574 151.182 49.0213 148.389 51.6646C146.952 53.0663 145.456 54.2278 143.899 55.1489C142.343 56.03 140.049 57.0914 137.016 58.3329L159.582 94.1377H132.467L110.499 57.612L106.129 94.1377H82.844ZM112.115 42.7134H116.305C121.213 42.7134 125.184 41.6521 128.217 39.5294C131.289 37.3667 132.826 34.5232 132.826 30.9987C132.826 27.995 131.668 25.6921 129.354 24.0901C127.039 22.4881 123.747 21.6871 119.477 21.6871H115.048L112.115 42.7134Z" fill="white"/>
<path d="M171.674 94.1377L182.927 1.86233H206.212L194.959 94.1377H171.674Z" fill="white"/>
<path d="M210.941 85.7872L221.356 68.0651C225.586 70.9487 229.098 72.9512 231.891 74.0726C234.725 75.1539 237.698 75.6946 240.81 75.6946C244.481 75.6946 247.434 74.8335 249.669 73.1114C251.944 71.3492 253.081 69.0864 253.081 66.3229C253.081 64.2803 252.363 62.5782 250.926 61.2165C249.53 59.8148 246.696 58.0325 242.426 55.8698C234.166 51.7046 228.539 47.7597 225.546 44.035C222.593 40.2703 221.117 35.2841 221.117 29.0763C221.117 20.7059 224.309 13.7772 230.694 8.29036C237.119 2.76345 245.2 0 254.937 0C263.876 0 272.774 2.84355 281.634 8.53066L271.458 26.2528C265.352 21.6471 259.965 19.3442 255.296 19.3442C252.183 19.3442 249.689 20.0851 247.814 21.567C245.938 23.0488 245 25.0113 245 27.4543C245 28.6959 245.28 29.8773 245.838 30.9987C246.596 32.2804 247.694 33.4218 249.13 34.423C250.607 35.4243 253.121 36.7459 256.673 38.388C264.295 41.9925 269.582 45.6971 272.535 49.5019C275.488 53.2666 276.965 58.2128 276.965 64.3404C276.965 73.592 273.692 81.1815 267.148 87.1089C260.603 93.0363 252.203 96 241.947 96C236.401 96 231.372 95.2591 226.863 93.7772C222.354 92.2954 217.046 89.632 210.941 85.7872Z" fill="white"/>
<path d="M285.045 94.1377L314.077 1.86233H337.122L344.126 32.9812C344.605 35.0638 345.143 37.7672 345.742 41.0914C346.819 47.0989 347.637 52.4856 348.196 57.2516C348.715 55.6896 349.273 54.1277 349.872 52.5657C349.992 52.3254 350.451 51.3041 351.249 49.5019C351.528 48.781 351.827 48.0801 352.147 47.3992C352.466 46.7184 352.745 46.1176 352.985 45.597C353.224 45.0763 353.384 44.7359 353.464 44.5757L375.132 1.86233H399.195L402.128 94.1377H378.843L377.706 52.806V49.7422C377.706 47.5394 377.746 45.8573 377.826 44.6959C377.906 42.9337 378.245 39.5294 378.843 34.4831C378.365 35.7247 377.826 37.1464 377.227 38.7484C374.753 44.5156 373.117 48.1402 372.319 49.622L349.752 94.1377H337.541L329.52 58.4531C329.361 57.6521 328.802 54.7084 327.844 49.622C327.006 44.2553 326.308 38.7084 325.749 32.9812C325.55 34.0626 325.29 35.3041 324.971 36.7059C324.692 38.1076 324.532 38.9687 324.492 39.2891C323.415 44.2954 322.198 49.2416 320.841 54.1277L309.049 94.1377H285.045Z" fill="white"/>
<path d="M418.41 94.1377L429.663 1.86233H480.064L477.61 22.1677H450.494L448.519 38.0275H474.677L472.223 58.3329H445.945L444.149 73.8323H472.342L469.768 94.1377H418.41Z" fill="white"/>
<path d="M524.669 62.8177L524.474 65.6998L524.306 67.3139L524.105 69.6271L523.71 73.5365L522.915 79.4629L522.418 82.5465L521.486 87.1473C520.995 89.5692 520.264 91.9034 519.316 94.1879C518.81 95.408 517.441 95.6602 516.114 95.6461C514.786 95.6319 513.6 95.2339 513.154 94.0169C511.674 89.9835 510.462 83.1127 510.09 78.8202L509.401 70.8572L509.308 69.3901L509.095 65.0217C508.529 66.6356 508.543 68.1828 508.326 69.7788L507.808 73.5906L506.584 80.7382C505.925 84.5885 504.945 88.2279 503.711 91.9883C503.178 93.6115 501.759 95.0965 499.637 95.2504C497.516 95.4042 495.555 95.3864 493.357 95.1472C491.744 94.9721 489.381 93.3518 489.412 91.6863L491.026 5.51169C491.063 3.57342 493.706 2.08648 495.584 2.01314C497.56 1.93836 499.216 1.94294 501.047 2.11558C503.035 2.30509 504.619 3.45215 505.148 5.10287C506.37 8.93792 507.17 12.7782 507.749 16.7226L508.183 19.6867C508.682 23.0958 509.022 26.4329 509.243 29.8553C509.305 30.8053 509.269 31.6784 509.723 32.6343L510.096 28.3269L510.568 24.0646L511.008 20.2893L511.279 18.5258L511.729 15.8101C512.235 12.7557 513.714 5.79761 515.206 3.26302C515.989 1.93387 519.979 1.91838 520.762 3.40749C522.468 6.65772 523.746 15.5148 524.134 19.3257L524.428 22.2209L524.683 25.4319L524.95 30.3149L525.091 32.2762L525.19 35.2381L525.293 39.7268L524.925 59.6957L524.672 62.8178L524.669 62.8177Z" fill="white"/>
<path d="M531.919 93.3278C529.449 93.8335 527.776 83.4554 527.582 81.8561L527.207 78.7565L526.941 76.1462L526.639 72.9867L526.511 70.6686L526.162 63.5699L526.085 59.5866L526.021 54.0711C525.984 50.9098 526.049 47.808 526.198 44.6467L526.48 38.7329L526.718 34.6527L526.933 32.4937L527.138 29.2461L527.3 27.7712L527.543 25.3252L527.964 22.1766L528.29 19.8218L528.748 16.8479C529.031 15.0091 529.493 13.2717 529.956 11.4734C530.285 10.1926 531.586 5.19092 533.333 5.16495C534.255 5.15269 534.763 5.95559 535.063 6.5522C536.405 9.20195 537.319 13.9089 537.657 16.8048L538.134 20.8579L538.446 24.0205L538.702 27.3737L538.808 29.4244L538.932 32.6015L539.079 35.1549L539.193 39.0691L538.848 59.2502L538.673 61.4418C538.602 62.3231 538.583 63.1616 538.503 64.034L538.292 66.3528L538.064 69.246L537.884 71.1502L537.438 74.8905L536.426 81.812C536.126 83.8683 534.396 92.8252 531.919 93.3307L531.919 93.3278Z" fill="white"/>
<path d="M545.657 88.1776C543.654 87.7034 542.69 78.5463 542.497 76.6684L542.202 73.808L542.046 71.2051L541.918 69.3079L541.776 67.7297L541.681 64.9652L541.586 61.9888L541.551 55.6146C541.529 51.8121 541.615 48.0983 541.764 44.2954L542.056 36.9219L542.244 34.2313L542.484 30.9058L542.909 27.2058C543.162 25.0067 544.603 10.7049 547.233 10.6574C549.862 10.6098 550.988 27.394 551.083 29.6709L551.312 35.1599L551.415 38.0697L551.444 44.7399C551.46 48.0054 551.396 51.2 551.261 54.4632L550.982 61.1258L550.568 66.5529L550.378 68.8546L550.189 70.8921L549.543 76.3216C549.369 77.7818 547.796 88.6886 545.653 88.1833L545.657 88.1776Z" fill="white"/>
<path d="M560.89 68.3597C560.777 69.5306 559.806 78.5861 558.106 78.6127C556.747 77.5997 556.203 71.7489 556.063 70.1012L555.747 66.3929L555.623 63.3668L555.515 60.1812L555.406 55.6692L555.651 43.6569L555.895 39.0718L556.088 36.4741L556.285 34.0158L556.766 29.6085C556.819 29.142 557.972 19.68 559.446 20.7877C559.949 21.1668 560.268 21.8652 560.411 22.4566C561.101 25.3259 561.42 28.1779 561.593 31.1003L561.842 35.3213L561.964 38.0862L562.078 42.5954L561.809 56.9264L561.536 61.2875L561.306 64.0501L560.89 68.3684L560.89 68.3597Z" fill="white"/>
<path d="M570.316 60.0543C570.248 60.6367 569.761 63.7001 569.162 63.8188C568.291 63.9944 567.962 59.5342 567.93 58.8923L567.801 56.3072L567.683 53.6846L567.829 45.3916L568.062 43.1371C568.201 41.775 568.494 36.7234 569.393 35.8111C570.134 35.0589 570.596 38.5342 570.606 38.6679L570.922 42.5735L570.989 47.2038C571.019 49.204 570.989 51.1627 570.878 53.1608L570.65 57.2324L570.322 60.0544L570.316 60.0543Z" fill="white"/>
</svg>
